<?xml version="1.0" encoding="utf-8"?>
<!-- Generator: Adobe Illustrator 21.0.0, SVG Export Plug-In . SVG Version: 6.00 Build 0)  -->
<svg version="1.1" id="Layer_1" xmlns="http://www.w3.org/2000/svg" xmlns:xlink="http://www.w3.org/1999/xlink" x="0px" y="0px"
	 viewBox="0 0 512 512" style="enable-background:new 0 0 512 512;" xml:space="preserve">
<style type="text/css">
	.st0{fill:#00BCD4;}
	.st1{fill:#448AFF;}
	.st2{fill:#3F51B5;}
</style>
<g>
	<path class="st0" d="M256,336.8c-44.5,0-80.8-36.4-80.8-80.8s36.4-80.8,80.8-80.8V0C114.5,0,0,114.5,0,256s114.5,256,256,256
		c59.3,0,114.5-20.2,159-55.2L307.2,319.3C292.4,330.1,274.9,336.8,256,336.8z"/>
	<path class="st1" d="M336.8,256H512C512,114.5,397.5,0,256,0v175.2C300.5,175.2,336.8,211.5,336.8,256z"/>
	<path class="st2" d="M512,256H336.8c0,25.6-12.1,48.5-31,63.3l107.8,137.4C474.3,409.6,512,336.8,512,256z"/>
</g>
</svg>
